<?xml version="1.0" standalone="no"?>
<!DOCTYPE svg PUBLIC "-//W3C//DTD SVG 1.1//EN" "http://www.w3.org/Graphics/SVG/1.1/DTD/svg11.dtd"><svg t="1672140504483"
    class="icon" viewBox="0 0 1024 1024" version="1.1" xmlns="http://www.w3.org/2000/svg" p-id="2696"
    xmlns:xlink="http://www.w3.org/1999/xlink" width="200" height="200">
    <path
        d="M332.6 468.9h582c24.7 0 44.8 20 44.8 44.8 0 24.7-20 44.8-44.8 44.8h-582c-24.7 0-44.8-20-44.8-44.8 0-24.7 20-44.8 44.8-44.8zM108.7 468.9h44.8c24.7 0 44.8 20 44.8 44.8 0 24.7-20 44.8-44.8 44.8h-44.8c-24.7 0-44.8-20-44.8-44.8 0.1-24.7 20.1-44.8 44.8-44.8zM108.7 737.5h805.8c24.7 0 44.8 20 44.8 44.8 0 24.7-20 44.8-44.8 44.8H108.7C84 827.1 64 807 64 782.3c0-24.7 20-44.8 44.7-44.8zM108.7 200.3h805.8c24.7 0 44.8 20 44.8 44.8 0 24.7-20 44.8-44.8 44.8H108.7c-24.7 0-44.8-20-44.8-44.8 0.1-24.7 20.1-44.8 44.8-44.8z"
        p-id="2697"></path>
</svg>